Coordinates
version=1
nRows=8
nColumns=34
inDegrees=yes

Units are S.I. units (second, meters, Newtons, ...)
If the header above contains a line with 'inDegrees', this indicates whether rotational values are in degrees (yes) or radians (no).

endheader
time	pelvis_tilt	pelvis_list	pelvis_rotation	pelvis_tx	pelvis_ty	pelvis_tz	hip_flexion_r	hip_adduction_r	hip_rotation_r	knee_angle_r	ankle_angle_r	subtalar_angle_r	mtp_angle_r	hip_flexion_l	hip_adduction_l	hip_rotation_l	knee_angle_l	ankle_angle_l	subtalar_angle_l	mtp_angle_l	lumbar_extension	lumbar_bending	lumbar_rotation	arm_flex_r	arm_add_r	arm_rot_r	elbow_flex_r	pro_sup_r	arm_flex_l	arm_add_l	arm_rot_l	elbow_flex_l	pro_sup_l
      2.96666670	      3.65531399	     -9.94004929	    -52.98484979	      1.54607403	      0.96368872	      6.18308207	     36.17528989	      6.95694472	      8.53475875	     32.72266069	     -7.74530074	     11.36938915	      0.00000000	     17.21688288	     20.17171368	     -3.47898552	      4.13076767	    -13.58278807	    -10.35552433	      0.00000000	    -23.90569212	      0.50615888	     18.38484012	     21.28202009	     24.06508384	     22.04978643	     28.92421991	    110.15783440	      9.29572264	     32.39251370	     28.56642332	     17.93225421	     82.98836443
      2.98333330	      3.41349709	     -9.71397153	    -52.61559935	      1.54926138	      0.96322857	      6.18427036	     35.16268572	      6.42814505	      9.07820998	     30.83142089	     -6.79842617	     10.57979024	      0.00000000	     17.38930299	     20.36558219	     -2.91288779	      4.29585432	    -13.46280269	    -10.92291492	      0.00000000	    -23.30173290	      0.52527886	     17.39026463	     21.32761188	     23.73457441	     21.66745012	     27.70660195	    110.19209692	      9.10392580	     31.81245828	     29.28817890	     17.44216736	     83.16592571
      3.00000000	      3.20360104	     -9.69253818	    -52.38758225	      1.55192354	      0.96293775	      6.18545566	     34.12618064	      6.27352131	      9.83876749	     29.33567299	     -4.59091749	     10.37123509	      0.00000000	     17.76310636	     20.36749264	     -2.78675956	      5.11258016	    -13.20653995	    -11.47020380	      0.00000000	    -22.92895985	      0.74183266	     16.81841425	     21.31139392	     23.16236267	     21.52028932	     27.00729887	    110.20465918	      8.93358263	     31.31355914	     29.66970637	     17.15952806	     83.26271866
      3.01666670	      2.89568343	     -9.78580263	    -52.35516127	      1.55476221	      0.96292339	      6.18666067	     33.19147349	      6.51708306	     11.29505545	     28.12181794	     -2.56494515	     11.57129613	      0.00000000	     18.27287424	     20.20104074	     -2.58257166	      6.23126798	    -12.61820445	    -12.18776899	      0.00000000	    -22.73784366	      1.14716048	     16.42741527	     21.44990237	     22.77627037	     21.51478263	     26.06359325	    110.24068914	      8.96058217	     30.86642277	     30.20078284	     16.91633848	     83.40435094
      3.03333330	      2.74826573	     -9.71828354	    -51.89834168	      1.55837808	      0.96233217	      6.18786821	     32.95135573	      6.06295792	     11.10988804	     28.08066840	     -0.06693631	     13.14243659	      0.00000000	     18.79419413	     20.41348769	     -2.00739670	      7.45840235	    -12.40852842	    -13.48380438	      0.00000000	    -22.35288133	      1.47755396	     15.99844287	     21.71677292	     22.29739825	     22.20950666	     24.72982366	    110.64256361	      8.99769711	     30.03692775	     34.32271013	     16.71643515	     84.50939792
      3.05000000	      2.85784012	     -9.84226152	    -51.72230023	      1.56202521	      0.96270109	      6.19060472	     32.31510393	      6.05542768	     12.22669077	     28.47847009	      3.05068180	     12.41019696	      0.00000000	     18.98770184	     20.59553533	     -1.70904238	      8.76845439	    -11.43739816	    -14.43485388	      0.00000000	    -22.20956997	      1.73137760	     16.10214709	     21.58100075	     21.55822663	     21.95914527	     24.14135108	    110.63448156	      8.44786924	     29.74119567	     35.01051765	     16.76575670	     84.67253334
      3.06666670	      2.87191301	    -10.06138755	    -52.14079320	      1.56525821	      0.96315125	      6.19354268	     31.75465170	      6.36448042	     12.88009880	     28.88503181	      6.32486235	     12.07136510	      0.00000000	     19.24087786	     20.48455595	     -1.74088804	      9.99853739	    -10.66043148	    -15.43109169	      0.00000000	    -22.07101373	      2.15871863	     16.69519356	     21.51556940	     20.81883783	     21.80283759	     23.36066422	    110.62682426	      7.94582686	     29.59272484	     35.78271919	     16.93714286	     84.86928358
      3.08333330	      3.06866718	     -9.74347288	    -53.37326689	      1.56771697	      0.96248549	      6.19631402	     32.15366979	      6.02393961	     12.07050424	     29.87726083	      9.84340066	     14.89611226	      0.00000000	     20.01446125	     20.70219448	     -2.12984622	     10.92573249	    -10.60945842	    -17.16336169	      0.00000000	    -21.48811535	      1.96896692	     18.55910492	     21.44420646	     19.62438297	     21.93087306	     22.53734962	    110.85226294	      7.86857183	     29.30081081	     42.03753782	     17.05191549	     86.24471794
